<?xml version="1.0" encoding="UTF-8" standalone="no"?>
<!-- Uploaded to: SVG Repo, www.svgrepo.com, Generator: SVG Repo Mixer Tools -->

<svg
   fill="#000000"
   version="1.1"
   id="Capa_1"
   width="800px"
   height="800px"
   viewBox="0 0 921.998 921.998"
   xml:space="preserve"
   sodipodi:docname="heart-logo.svg"
   inkscape:version="1.3.2 (091e20e, 2023-11-25, custom)"
   xmlns:inkscape="http://www.inkscape.org/namespaces/inkscape"
   xmlns:sodipodi="http://sodipodi.sourceforge.net/DTD/sodipodi-0.dtd"
   xmlns:xlink="http://www.w3.org/1999/xlink"
   xmlns="http://www.w3.org/2000/svg"
   xmlns:svg="http://www.w3.org/2000/svg"><defs
   id="defs3"><linearGradient
     id="linearGradient3"
     inkscape:collect="always"><stop
       style="stop-color:#3caf2a;stop-opacity:1;"
       offset="0"
       id="stop3" /><stop
       style="stop-color:#fcff94;stop-opacity:1;"
       offset="1"
       id="stop4" /></linearGradient><linearGradient
     inkscape:collect="always"
     xlink:href="#linearGradient3"
     id="linearGradient4"
     x1="460.4375"
     y1="846.7558"
     x2="460.4375"
     y2="179.68292"
     gradientUnits="userSpaceOnUse" /><linearGradient
     inkscape:collect="always"
     xlink:href="#linearGradient3"
     id="linearGradient6"
     x1="461.56052"
     y1="846.7558"
     x2="459.31448"
     y2="174.06783"
     gradientUnits="userSpaceOnUse" /></defs><sodipodi:namedview
   id="namedview3"
   pagecolor="#ffffff"
   bordercolor="#000000"
   borderopacity="0.25"
   inkscape:showpageshadow="2"
   inkscape:pageopacity="0.0"
   inkscape:pagecheckerboard="0"
   inkscape:deskcolor="#d1d1d1"
   inkscape:zoom="0.72566833"
   inkscape:cx="335.55274"
   inkscape:cy="414.10102"
   inkscape:window-width="1920"
   inkscape:window-height="1017"
   inkscape:window-x="-8"
   inkscape:window-y="-8"
   inkscape:window-maximized="1"
   inkscape:current-layer="Capa_1" />
<g
   id="g3">
	<g
   id="g2">
		<path
   d="M921.214,301.549c-0.3-3.9-0.7-7.8-1.2-11.6c-16.1-126.9-136-214.1-258.4-214.1c-23.1,0-46.399,3.1-69,9.7    c-53.1,15.4-98,48.7-131.6,91.7c-33.6-43-78.4-76.3-131.6-91.7c-22.601-6.6-45.9-9.7-69-9.7c-122.4,0-242.2,87.1-258.4,214    c-0.5,3.9-0.9,7.7-1.2,11.6c-4.5,57.101,10,112.4,35.6,162.7h167.2l64.5-163.7c4.2-10.8,14.7-17.7,26.301-17.4    c11.6,0.3,21.699,7.8,25.3,18.8l63,189.8l14.399,43.5l20.601-43.5l63-133.2c4.5-9.399,13.899-15.5,24.399-15.7    c0.2,0,0.301,0,0.5,0c10.301,0,19.7,5.7,24.4,14.9l55.2,106.6h300.2C911.214,413.949,925.613,358.549,921.214,301.549z"
   id="path1"
   style="fill:url(#linearGradient6);fill-opacity:1" />
		<path
   d="M544.214,504.349l-6.5-12.601l-30.8-59.5l-28.2,59.5l-61,129c-4.601,9.601-14.3,15.7-24.8,15.7c-0.601,0-1.101,0-1.7-0.1    c-11.2-0.7-20.9-8.101-24.4-18.8l-41.8-125.9l-33.4-100.5l-39.6,100.5l-4,10.1c-4.1,10.5-14.3,17.4-25.6,17.4h-152.3    c15,21,31.7,40.6,49.4,58.7c80.8,82.5,182.4,139.399,272.7,210.1c22.899,18,49.3,36.5,68.8,58.2c19.5-21.7,45.901-40.3,68.8-58.2    c90.3-70.7,191.9-127.6,272.7-210.1c17.7-18,34.4-37.7,49.4-58.7H568.613C558.313,519.249,548.914,513.449,544.214,504.349z"
   id="path2"
   style="fill:url(#linearGradient4);fill-opacity:1" />
	</g>
</g>
</svg>
