<?xml version="1.0" encoding="UTF-8" standalone="no"?>
<!-- Uploaded to: SVG Repo, www.svgrepo.com, Generator: SVG Repo Mixer Tools -->

<svg
   width="800px"
   height="800px"
   viewBox="0 0 48 48"
   version="1.1"
   id="svg2"
   sodipodi:docname="monitoring-health-solid-svgrepo-com.svg"
   xml:space="preserve"
   inkscape:version="1.4 (e7c3feb, 2024-10-09)"
   xmlns:inkscape="http://www.inkscape.org/namespaces/inkscape"
   xmlns:sodipodi="http://sodipodi.sourceforge.net/DTD/sodipodi-0.dtd"
   xmlns="http://www.w3.org/2000/svg"
   xmlns:svg="http://www.w3.org/2000/svg"><defs
     id="defs2" /><sodipodi:namedview
     id="namedview2"
     pagecolor="#ffffff"
     bordercolor="#000000"
     borderopacity="0.25"
     inkscape:showpageshadow="2"
     inkscape:pageopacity="0.0"
     inkscape:pagecheckerboard="0"
     inkscape:deskcolor="#d1d1d1"
     inkscape:zoom="0.50625"
     inkscape:cx="416.79012"
     inkscape:cy="349.62963"
     inkscape:window-width="1920"
     inkscape:window-height="1012"
     inkscape:window-x="0"
     inkscape:window-y="0"
     inkscape:window-maximized="1"
     inkscape:current-layer="Layer_2" /><g
     id="Layer_2"
     data-name="Layer 2"><g
       id="invisible_box"
       data-name="invisible box"><rect
         width="48"
         height="48"
         fill="none"
         id="rect1" /></g><g
       id="Health_Icons"
       data-name="Health Icons"
       transform="matrix(0.71837219,0,0,0.71837219,0.40774971,12.510796)"
       style="stroke:#ffffff;stroke-opacity:1;stroke-width:1.41987679;stroke-dasharray:none;stroke-linejoin:miter;paint-order:normal;stroke-linecap:round"><g
         id="g2"
         style="stroke:#ffffff;stroke-opacity:1;stroke-width:1.41987679;stroke-dasharray:none;stroke-linejoin:miter;paint-order:normal;stroke-linecap:round"><path
           d="M 43,4 H 5 A 2.9,2.9 0 0 0 2,7 v 11.9 h 5.3 l 1.8,-3.7 a 1.9,1.9 0 0 1 1.8,-1.1 2.1,2.1 0 0 1 1.8,1.1 l 2.9,6.1 4.8,-10.2 a 2,2 0 0 1 3.6,0 l 3.7,7.8 H 30 a 2,2 0 0 1 0,4 h -3.6 a 2.2,2.2 0 0 1 -1.8,-1.2 l -2.4,-5 -4.8,10.2 A 2.1,2.1 0 0 1 15.6,28 1.9,1.9 0 0 1 13.8,26.9 l -2.9,-6.1 -0.5,0.9 A 2,2 0 0 1 8.6,22.9 H 2 V 35 a 3,3 0 0 0 3,3 h 38 a 3,3 0 0 0 3,-3 V 7 A 2.9,2.9 0 0 0 43,4 Z M 29.4,31.4 A 2,2 0 0 1 28,32 H 24 A 2,2 0 0 1 22,30 1.7,1.7 0 0 1 22.6,28.6 2,2 0 0 1 24,28 h 4 a 2,2 0 0 1 2,2 1.7,1.7 0 0 1 -0.6,1.4 z m 10,0 A 2,2 0 0 1 38,32 H 34 A 2,2 0 0 1 32,30 1.7,1.7 0 0 1 32.6,28.6 2,2 0 0 1 34,28 h 4 a 2,2 0 0 1 2,2 1.7,1.7 0 0 1 -0.6,1.4 z"
           id="path1"
           style="fill:#005035;fill-opacity:1;stroke:#ffffff;stroke-opacity:1;stroke-width:1.41987679;stroke-dasharray:none;stroke-linejoin:miter;paint-order:normal;stroke-linecap:round" /><path
           d="M 37,40 H 11 a 2,2 0 0 0 0,4 h 26 a 2,2 0 0 0 0,-4 z"
           id="path2"
           style="fill:#005035;fill-opacity:1;stroke:#ffffff;stroke-opacity:1;stroke-width:1.41987679;stroke-dasharray:none;stroke-linejoin:miter;paint-order:normal;stroke-linecap:round" /></g><path
         d="m 24.726781,25.412292 0.72948,-0.7198 c 0.268276,-0.264718 0.686803,-0.275561 0.934803,-0.02423 l 2.694277,2.730504 c 0.248001,0.251337 0.231562,0.66968 -0.03671,0.934395 l -0.729481,0.719801 c 4.855072,4.186865 9.107912,5.383689 8.393939,6.08819 -0.741462,0.731624 -7.842344,-1.149751 -11.905603,-4.419461 l -0.05725,0.05649 c -0.268267,0.264713 -0.686791,0.27556 -0.934793,0.02422 L 22.91735,29.892234 c -0.248001,-0.251337 -0.231562,-0.66968 0.03671,-0.934396 l 0.05692,-0.05615 c -3.21482,-4.106896 -5.001193,-11.23227 -4.259729,-11.963893 0.713973,-0.704502 1.853892,3.563945 5.975541,8.474499 z m 4.444518,0.704097 -1.496823,-1.516947 c -0.275556,-0.279264 -0.272551,-0.729032 0.0067,-1.00459 L 38.046991,13.366578 c 0.698155,-0.688895 1.82258,-0.681386 2.511472,0.01677 v 0 c 0.688893,0.698157 0.681384,1.822581 -0.01677,2.511473 L 30.175887,26.123098 c -0.279263,0.275557 -0.729034,0.272551 -1.004588,-0.0067 z"
         fill="#4a4a4a"
         fill-rule="evenodd"
         id="path1-3"
         style="fill:#a49665;fill-opacity:1;stroke:#ffffff;stroke-width:0.82711436;stroke-opacity:1;stroke-dasharray:none;stroke-linejoin:miter;paint-order:normal;stroke-linecap:round"
         transform="matrix(1.7166632,0,0,1.7166632,-6.9253676,-33.974654)" /></g></g></svg>
